<svg width="200" height="200" viewBox="0 0 200 200" fill="none" xmlns="http://www.w3.org/2000/svg">
<path d="M142.857 85.3923H57.1431C56.161 85.3923 55.3574 86.1959 55.3574 87.178V176.909C55.3574 177.892 56.161 178.695 57.1431 178.695H142.857C143.839 178.695 144.642 177.892 144.642 176.909V87.178C144.642 86.1959 143.839 85.3923 142.857 85.3923ZM69.643 99.6779H130.357V125.794H69.643V99.6779ZM130.357 164.41H69.643V138.294H130.357V164.41Z" fill="black"/>
<path d="M80.3572 152.802C80.3572 154.697 81.1097 156.514 82.4493 157.853C83.7888 159.193 85.6056 159.945 87.5 159.945C89.3944 159.945 91.2112 159.193 92.5507 157.853C93.8902 156.514 94.6428 154.697 94.6428 152.802C94.6428 150.908 93.8902 149.091 92.5507 147.752C91.2112 146.412 89.3944 145.66 87.5 145.66C85.6056 145.66 83.7888 146.412 82.4493 147.752C81.1097 149.091 80.3572 150.908 80.3572 152.802Z" fill="black"/>
<path d="M80.3572 113.071C80.3572 114.965 81.1097 116.782 82.4493 118.122C83.7888 119.461 85.6056 120.214 87.5 120.214C89.3944 120.214 91.2112 119.461 92.5507 118.122C93.8902 116.782 94.6428 114.965 94.6428 113.071C94.6428 111.176 93.8902 109.36 92.5507 108.02C91.2112 106.681 89.3944 105.928 87.5 105.928C85.6056 105.928 83.7888 106.681 82.4493 108.02C81.1097 109.36 80.3572 111.176 80.3572 113.071Z" fill="black"/>
<path d="M166.83 68.1827C156.607 41.1963 130.558 22 100.045 22C69.5314 22 43.4825 41.174 33.2593 68.1603C14.0407 73.2273 -0.110951 90.7941 0.000655518 111.642C0.134583 134.946 18.2148 153.896 40.9825 155.928C42.0316 156.017 42.9244 155.191 42.9244 154.142V140.66C42.9244 139.767 42.2548 139.008 41.3619 138.896C35.3352 138.137 29.6433 135.504 25.2683 131.196C19.9112 125.95 16.9648 118.897 16.9648 111.419C16.9648 105.169 18.996 99.2762 22.813 94.3655C26.5406 89.5888 31.7861 86.129 37.5673 84.6111L46.0271 82.379L49.1297 74.1871C51.0494 69.0978 53.7279 64.3211 57.0984 60.0131C60.4243 55.7274 64.3751 51.9774 68.7948 48.8525C77.9688 42.4016 88.7723 38.9865 100.045 38.9865C111.317 38.9865 122.12 42.4016 131.294 48.8748C135.736 51.9998 139.665 55.7497 142.991 60.0354C146.361 64.3434 149.04 69.1202 150.959 74.2094L154.04 82.379L162.477 84.6111C174.575 87.8254 183.035 98.8297 183.035 111.397C183.035 118.897 180.089 125.928 174.731 131.173C170.379 135.459 164.709 138.115 158.682 138.874C157.79 138.986 157.142 139.745 157.142 140.637V154.142C157.142 155.191 158.057 156.017 159.107 155.928C181.807 153.874 199.843 134.946 199.999 111.687C200.133 90.8387 186.004 73.2719 166.83 68.1827Z" fill="black"/>
</svg>
